
        <svg xmlns="http://www.w3.org/2000/svg" xmlns:xlink="http://www.w3.org/1999/xlink" version="1.1" width="3253.834825226459" height="3295.803165929678" viewBox="0 0 3253.834825226459 3295.803165929678">
			
			<g transform="scale(14.790158296483906) translate(10, 10)">
				<defs id="SvgjsDefs2460"/><g id="SvgjsG2461" featureKey="nameFeature-0" transform="matrix(6.46589578138433,0,0,6.46589578138433,3.016809887028608,-78.01109771915023)" fill="#fff"><path d="M8.32 28.8 c0.13332 0.98668 0.27344 2.0268 0.42012 3.1202 s0.27336 2.1466 0.38004 3.16 s0.17336 1.9333 0.20004 2.76 s0 1.46 -0.08 1.9 s-0.24 0.62668 -0.48 0.56 s-0.58668 -0.48668 -1.04 -1.26 c0 -1.84 -0.08668 -3.58 -0.26 -5.22 s-0.39332 -3.2867 -0.66 -4.94 c-0.61332 0 -1.2133 -0.1 -1.8 -0.3 s-1.12 -0.42668 -1.6 -0.68 s-0.86 -0.52 -1.14 -0.8 s-0.42 -0.51332 -0.42 -0.7 c0.18668 0.05332 0.48 0.12 0.88 0.2 s0.82 0.15332 1.26 0.22 s0.88 0.12 1.32 0.16 s0.79332 0.06 1.06 0.06 c-0.16 -1.2 -0.31332 -2.28 -0.46 -3.24 s-0.29336 -1.8933 -0.44004 -2.8 s-0.29336 -1.8334 -0.44004 -2.78 s-0.28668 -2.0067 -0.42 -3.18 c-0.82668 -0.34668 -1.66 -0.66668 -2.5 -0.96 s-1.6467 -0.62664 -2.42 -0.99996 c-0.05332 -0.16 -0.09332 -0.27332 -0.12 -0.34 s-0.033359 -0.12668 -0.020039 -0.18 s0.05332 -0.11332 0.12 -0.18 s0.18 -0.16668 0.34 -0.3 c0.21332 -0.05332 0.71332 0.033359 1.5 0.26004 s1.72 0.54668 2.8 0.96 s2.24 0.90664 3.48 1.48 s2.44 1.16 3.6 1.76 s2.2 1.2 3.12 1.8 s1.5933 1.1533 2.02 1.66 c0.4 0.32 0.67332 0.69332 0.82 1.12 s0.18668 0.86668 0.12 1.32 s-0.23336 0.90664 -0.50004 1.36 s-0.6 0.88 -1 1.28 c-0.4 0.37332 -0.87332 0.76664 -1.42 1.18 s-1.14 0.8 -1.78 1.16 s-1.3333 0.66668 -2.08 0.92 s-1.5334 0.40664 -2.36 0.45996 z M7.8 26.96 c1.2533 0 2.3668 -0.13336 3.3401 -0.40004 s1.7933 -0.64 2.46 -1.12 s1.1534 -1.04 1.46 -1.68 s0.40668 -1.3067 0.3 -2 c-0.05332 -0.53332 -0.41332 -1.0733 -1.08 -1.62 s-1.4734 -1.08 -2.42 -1.6 s-1.9467 -1.0267 -3 -1.52 s-1.9933 -0.96664 -2.82 -1.42 c0.05332 0.56 0.12664 1.1667 0.21996 1.82 s0.20664 1.4133 0.33996 2.28 s0.3 1.8867 0.5 3.06 s0.43332 2.5733 0.7 4.2 z M20.880000000000003 30.439999999999998 c0.08 0 0.13336 0.05328 0.16004 0.15996 s0.033359 0.23336 0.020039 0.38004 s-0.04 0.28668 -0.08 0.42 s-0.07332 0.22664 -0.1 0.27996 c-0.29332 -0.02668 -0.76 -0.033359 -1.4 -0.020039 s-1.3067 0.04 -2 0.08 s-1.32 0.09332 -1.88 0.16 s-0.89332 0.15336 -1 0.26004 c-0.13332 -0.50668 -0.11332 -0.90668 0.06 -1.2 s0.47332 -0.42664 0.9 -0.39996 c0.48 0 0.9 -0.0066796 1.26 -0.02 s0.72668 -0.02 1.1 -0.02 s0.78664 -0.0066796 1.24 -0.02 s1.0266 -0.03332 1.72 -0.06 z M25.400000000000002 43.36 c-0.53332 0.18668 -0.80012 0.026641 -0.80012 -0.48004 c0.96 -1.3067 1.7267 -2.58 2.3 -3.82 s1.0133 -2.42 1.32 -3.54 s0.51336 -2.1533 0.62004 -3.1 s0.16 -1.78 0.16 -2.5 c0 -2.3733 -0.13332 -4.3732 -0.4 -6 s-0.58668 -3 -0.96 -4.12 s-0.77332 -2.0467 -1.2 -2.78 s-0.8 -1.4066 -1.12 -2.02 c-0.26668 -0.37332 -0.34668 -0.64 -0.24 -0.8 s0.29336 -0.33332 0.56004 -0.52 c0.45332 0.64 0.88664 1.34 1.3 2.1 s0.8 1.54 1.16 2.34 s0.67332 1.5933 0.94 2.38 s0.48 1.5134 0.64 2.18 c0.24 1.0133 0.41332 1.9266 0.52 2.74 s0.18 1.5533 0.22 2.22 s0.05332 1.2667 0.04 1.8 s-0.02 1.04 -0.02 1.52 c-0.29332 2.2133 -0.70664 4.0732 -1.24 5.58 s-1.0666 2.74 -1.6 3.7 s-1.0133 1.68 -1.44 2.16 s-0.68 0.8 -0.76 0.96 z"/></g>
			</g>
		</svg>
	